<svg xmlns="http://www.w3.org/2000/svg"  viewBox="0 0 48 48" width="48px" height="48px"><linearGradient id="IJp77CY8NayMJKO1sTz31a" x1="24" x2="24" y1="3.882" y2="48.182" gradientUnits="userSpaceOnUse"><stop offset="0" stop-color="#4caf50"/><stop offset=".489" stop-color="#4aaf50"/><stop offset=".665" stop-color="#43ad50"/><stop offset=".79" stop-color="#38aa50"/><stop offset=".892" stop-color="#27a550"/><stop offset=".978" stop-color="#11a050"/><stop offset="1" stop-color="#0a9e50"/></linearGradient><path fill="url(#IJp77CY8NayMJKO1sTz31a)" d="M35,42H13c-3.866,0-7-3.134-7-7V13c0-3.866,3.134-7,7-7h22c3.866,0,7,3.134,7,7v22	C42,38.866,38.866,42,35,42z"/><g opacity=".05"><path d="M24.07,14.185c0.024,0,0.047,0,0.071,0c4.566,0.047,7.38,2.086,8.361,2.938c0.22,0.191,0.225,0.525,0.018,0.73 l-1.581,1.786c-0.096,0.096-0.224,0.146-0.353,0.146c-0.091,0-0.183-0.025-0.264-0.078c-0.799-0.52-2.392-2.074-5.236-2.074 c-1.75,0-2.816,0.668-2.927,1.541c-0.154,1.22,0.661,2.274,3.155,2.837c5.527,1.247,6.457,4.467,5.87,7.068 c-0.54,2.395-3.277,4.854-8.128,4.854c-0.122,0-0.245-0.001-0.37-0.004c-3.612-0.088-5.98-2.312-6.781-3.198 c-0.177-0.195-0.171-0.489,0.011-0.68l1.664-1.876c0.098-0.103,0.229-0.156,0.361-0.156c0.107,0,0.215,0.035,0.306,0.106 c0.738,0.58,2.446,2.054,4.696,2.177c0.214,0.012,0.42,0.017,0.615,0.017c2.189,0,3.227-0.712,3.371-1.753 c0.149-1.075-0.375-1.986-3.277-2.739c-5.185-1.345-6.115-4.37-5.796-6.897C18.189,16.291,20.905,14.185,24.07,14.185 M24.07,13.185c-3.643,0-6.809,2.469-7.206,5.62c-0.287,2.276,0.18,6.341,6.537,7.99c2.668,0.692,2.58,1.328,2.538,1.634 c-0.114,0.826-1.851,0.891-2.38,0.891c-0.179,0-0.366-0.005-0.561-0.016c-1.787-0.098-3.21-1.231-3.974-1.839l-0.158-0.125 c-0.264-0.207-0.591-0.32-0.924-0.32c-0.408,0-0.803,0.17-1.086,0.467l-1.688,1.902c-0.516,0.541-0.528,1.438-0.003,2.016 c0.928,1.027,3.52,3.429,7.497,3.526c0.133,0.003,0.264,0.004,0.394,0.004c5.411,0,8.471-2.83,9.103-5.634 c0.399-1.769,0.128-3.434-0.784-4.813c-1.099-1.663-3.065-2.824-5.842-3.45c-1.679-0.379-2.481-0.963-2.383-1.736 c0.029-0.232,0.627-0.666,1.935-0.666c2.079,0,3.366,0.948,4.217,1.576c0.18,0.132,0.337,0.248,0.473,0.336 c0.241,0.157,0.521,0.24,0.81,0.24c0.399,0,0.774-0.155,1.058-0.437l0.023-0.023l0.021-0.024l1.565-1.768 c0.279-0.292,0.431-0.687,0.418-1.089c-0.014-0.413-0.2-0.805-0.513-1.077c-1.083-0.94-4.128-3.133-9.006-3.183L24.07,13.185 L24.07,13.185z"/><path d="M28.382,12c0.317,0,0.555,0.292,0.489,0.602l-0.839,3.99l-4.047-0.184l0.843-4.011C24.876,12.166,25.081,12,25.317,12 H28.382 M28.382,11h-3.065c-0.707,0-1.324,0.502-1.468,1.194l-0.843,4.009l-0.242,1.151l1.175,0.053l4.047,0.184l0.849,0.039 l0.175-0.832l0.839-3.99c0.094-0.441-0.016-0.898-0.302-1.251C29.262,11.203,28.837,11,28.382,11L28.382,11z"/><path d="M25.003,31l-0.968,4.603C23.987,35.834,23.782,36,23.546,36h-3.065c-0.318,0-0.555-0.292-0.49-0.603L20.916,31H25.003 M26.235,30h-1.232h-4.087h-0.811l-0.167,0.794l-0.925,4.397c-0.093,0.446,0.018,0.903,0.304,1.255 C19.603,36.798,20.027,37,20.481,37h3.065c0.707,0,1.324-0.502,1.468-1.194l0.967-4.601L26.235,30L26.235,30z"/></g><g opacity=".07"><path d="M24.07,14.185c0.024,0,0.047,0,0.071,0c4.566,0.047,7.38,2.086,8.361,2.938c0.22,0.191,0.225,0.525,0.018,0.73 l-1.581,1.786c-0.096,0.096-0.224,0.146-0.353,0.146c-0.091,0-0.183-0.025-0.264-0.078c-0.799-0.52-2.392-2.074-5.236-2.074 c-1.75,0-2.816,0.668-2.927,1.541c-0.154,1.22,0.661,2.274,3.155,2.837c5.527,1.247,6.457,4.467,5.87,7.068 c-0.54,2.395-3.277,4.854-8.128,4.854c-0.122,0-0.245-0.001-0.37-0.004c-3.612-0.088-5.98-2.312-6.781-3.198 c-0.177-0.195-0.171-0.489,0.011-0.68l1.664-1.876c0.098-0.103,0.229-0.156,0.361-0.156c0.107,0,0.215,0.035,0.306,0.106 c0.738,0.58,2.446,2.054,4.696,2.177c0.214,0.012,0.42,0.017,0.615,0.017c2.189,0,3.227-0.712,3.371-1.753 c0.149-1.075-0.375-1.986-3.277-2.739c-5.185-1.345-6.115-4.37-5.796-6.897C18.189,16.291,20.905,14.185,24.07,14.185 M24.07,13.685c-3.396,0-6.343,2.277-6.71,5.183c-0.267,2.113,0.18,5.89,6.167,7.443c3.099,0.804,2.979,1.669,2.907,2.186 c-0.159,1.15-1.87,1.322-2.875,1.322c-0.187,0-0.383-0.005-0.588-0.017c-1.947-0.106-3.508-1.35-4.259-1.948l-0.155-0.123 c-0.176-0.138-0.394-0.213-0.615-0.213c-0.271,0-0.535,0.114-0.723,0.311l-1.676,1.889c-0.354,0.371-0.362,0.956-0.007,1.348 c0.886,0.98,3.355,3.27,7.139,3.362c0.129,0.003,0.256,0.004,0.382,0.004c5.135,0,8.027-2.634,8.616-5.244 c0.257-1.139,0.342-2.831-0.713-4.427c-1.025-1.552-2.888-2.641-5.535-3.238c-1.973-0.445-2.904-1.215-2.769-2.287 c0.068-0.531,0.857-1.104,2.431-1.104c2.243,0,3.665,1.048,4.514,1.673c0.171,0.126,0.32,0.235,0.449,0.32 c0.16,0.104,0.346,0.159,0.537,0.159c0.266,0,0.516-0.104,0.705-0.292l1.603-1.809c0.176-0.173,0.285-0.446,0.276-0.724 c-0.009-0.274-0.133-0.535-0.341-0.715c-1.041-0.904-3.971-3.012-8.684-3.06L24.07,13.685L24.07,13.685z"/><path d="M28.382,12c0.317,0,0.555,0.292,0.489,0.602l-0.839,3.99l-4.047-0.184l0.843-4.011C24.876,12.166,25.081,12,25.317,12 H28.382 M28.382,11.5h-3.065c-0.471,0-0.883,0.334-0.979,0.795l-0.843,4.01l-0.121,0.576l0.588,0.027l4.047,0.184l0.425,0.019 l0.087-0.416l0.839-3.99c0.063-0.294-0.01-0.599-0.201-0.834C28.969,11.635,28.685,11.5,28.382,11.5L28.382,11.5z"/><path d="M25.003,31l-0.968,4.603C23.987,35.834,23.782,36,23.546,36h-3.065c-0.318,0-0.555-0.292-0.49-0.603L20.916,31H25.003 M25.619,30.5h-0.616h-4.087H20.51l-0.084,0.397l-0.925,4.397c-0.062,0.297,0.012,0.602,0.203,0.836 c0.191,0.235,0.474,0.369,0.777,0.369h3.065c0.471,0,0.883-0.334,0.979-0.795l0.968-4.602L25.619,30.5L25.619,30.5z"/></g><path fill="#fafafa" d="M25.086,17.633c2.844,0,4.437,1.554,5.236,2.074c0.195,0.127,0.452,0.096,0.617-0.068l1.581-1.786 c0.207-0.205,0.202-0.539-0.018-0.73c-0.626-0.544-2.008-1.568-4.108-2.252l0.477-2.269C28.937,12.292,28.699,12,28.382,12h-3.065 c-0.236,0-0.441,0.166-0.489,0.397l-0.38,1.808c-0.106-0.003-0.2-0.019-0.307-0.02c-3.195-0.032-5.95,2.086-6.285,4.745 c-0.319,2.527,0.611,5.552,5.796,6.897c2.902,0.753,3.426,1.664,3.277,2.739c-0.157,1.135-1.374,1.878-3.986,1.736 c-2.25-0.123-3.958-1.597-4.696-2.177c-0.203-0.159-0.489-0.137-0.667,0.05l-1.664,1.876c-0.182,0.191-0.188,0.485-0.011,0.68 c0.615,0.68,2.159,2.14,4.473,2.825l-0.387,1.841C19.926,35.708,20.163,36,20.481,36h3.065c0.236,0,0.441-0.166,0.489-0.397 l0.367-1.744c4.009-0.409,6.295-2.618,6.782-4.78c0.587-2.601-0.343-5.821-5.87-7.068c-2.494-0.563-3.309-1.617-3.155-2.837 C22.27,18.301,23.336,17.633,25.086,17.633z"/></svg>