<svg xmlns="http://www.w3.org/2000/svg" xmlns:xlink="http://www.w3.org/1999/xlink" viewBox="0,0,256,256" width="50px" height="50px"><g fill="#ffffff" fill-rule="nonzero" stroke="none" stroke-width="1" stroke-linecap="butt" stroke-linejoin="miter" stroke-miterlimit="10" stroke-dasharray="" stroke-dashoffset="0" font-family="none" font-weight="none" font-size="none" text-anchor="none" style="mix-blend-mode: normal"><g transform="scale(5.12,5.12)"><path d="M9.98438,15.00195c-0.835,0.04 -1.86608,0.57136 -2.45508,1.31836c-0.54,0.644 -1.00177,1.68988 -0.88477,2.67188c0.943,0.082 1.88561,-0.49175 2.47461,-1.21875c0.58,-0.747 0.96323,-1.74848 0.86523,-2.77148zM18,17v15h2.375v-5h3.25c2.983,0 5.125,-2.075 5.125,-5c0,-2.925 -2.10288,-5 -5.04687,-5zM9.73438,19c-0.80028,0 -1.46501,0.21414 -1.95117,0.39453c-0.48616,0.18039 -0.85458,0.26953 -0.74414,0.26953c0.09861,0 -0.24146,-0.08181 -0.67773,-0.25781c-0.43627,-0.176 -1.02161,-0.40234 -1.73828,-0.40234c-1.62498,0 -3.08697,0.96651 -3.88086,2.37109c-0.79821,1.38293 -0.86821,2.99195 -0.60937,4.4668c0.2588,1.47464 0.84564,2.84387 1.55664,3.87891c0.31681,0.46557 0.68352,0.98358 1.17578,1.42969c0.49226,0.44611 1.16704,0.8418 1.97852,0.8418h0.01953h0.01758c0.63822,-0.02395 1.11954,-0.23719 1.42383,-0.36133c0.30429,-0.12414 0.45657,-0.18945 0.8457,-0.18945c0.38222,0 0.53952,0.06923 0.87305,0.20508c0.33353,0.13584 0.85876,0.35352 1.54102,0.35352c0.8027,0 1.47762,-0.40533 1.9375,-0.85352c0.45917,-0.44749 0.78233,-0.94816 1.08203,-1.38867l0.00195,-0.00195c0.79885,-1.16969 1.12695,-2.36914 1.12695,-2.36914l0.24805,-0.88281l-0.85938,-0.32227c0,0 -1.27069,-0.37159 -1.2832,-1.98828v-0.00195c-0.006,-0.64501 0.23951,-1.08285 0.51172,-1.41211c0.13611,-0.16463 0.27696,-0.29247 0.38477,-0.37891c0.0539,-0.04322 0.09963,-0.07648 0.13281,-0.09961c0.03318,-0.02313 -0.04032,0.03945 0.12109,-0.08398l0.74805,-0.57227l-0.52539,-0.78125c-1.10384,-1.63879 -2.78647,-1.86328 -3.45703,-1.86328zM20.375,19h2.75c2.047,0 3.25,1.105 3.25,3c0,1.895 -1.193,3 -3.25,3h-2.75zM9.73438,21c0.13331,0 0.61996,0.14251 1.11523,0.44336c-0.02257,0.02607 -0.03987,0.03513 -0.0625,0.0625c-0.48654,0.58849 -0.97977,1.51508 -0.96875,2.70508c0.01484,1.80506 0.92766,2.69041 1.68555,3.22656c-0.12303,0.338 -0.18051,0.62135 -0.57031,1.19141l-0.00195,0.00195c-0.3069,0.45099 -0.58585,0.85167 -0.82422,1.08398c-0.23832,0.23226 -0.35767,0.28516 -0.54297,0.28516c-0.30574,0 -0.43564,-0.06192 -0.78711,-0.20508c-0.35147,-0.14316 -0.90717,-0.35352 -1.62695,-0.35352c-0.70386,0 -1.2526,0.19553 -1.60156,0.33789c-0.33805,0.13791 -0.46759,0.19412 -0.71875,0.20703c-0.17326,-0.00313 -0.3538,-0.07417 -0.62109,-0.31641c-0.27299,-0.24739 -0.577,-0.64778 -0.86719,-1.07422v-0.00195l-0.00195,-0.00195c-0.52658,-0.76534 -1.03201,-1.93152 -1.23633,-3.0957c-0.20432,-1.16418 -0.10868,-2.29617 0.37109,-3.125l0.00391,-0.00586l0.00195,-0.00391c0.45475,-0.80675 1.35345,-1.35742 2.14258,-1.35742c0.27133,0 0.60851,0.10382 0.99023,0.25781c0.38173,0.154 0.75517,0.40234 1.42578,0.40234c0.67443,0 1.03282,-0.24292 1.44141,-0.39453c0.40859,-0.15157 0.80918,-0.26953 1.25391,-0.26953zM34.19922,21c-2.489,0 -4.32849,1.39545 -4.39648,3.31445h2.10938c0.174,-0.912 1.03675,-1.50977 2.21875,-1.50977c1.433,0 2.24219,0.65628 2.24219,1.86328l0.00195,0.83203l-2.93164,0.1543c-2.721,0.161 -4.19336,1.2543 -4.19336,3.1543c0,1.919 1.52022,3.19336 3.69922,3.19336c1.472,0 2.83803,-0.73163 3.45703,-1.89062h0.04883v1.77539h2.16797v-7.37109c0.001,-2.139 -1.74083,-3.51562 -4.42383,-3.51562zM39.5,21l4.00781,10.94922l-0.21484,0.66602c-0.362,1.129 -0.94814,1.5625 -1.99414,1.5625c-0.179,0 -0.51783,-0.01811 -0.67383,-0.03711v1.80469c0.158,0.035 0.70791,0.05469 0.87891,0.05469c2.307,0 3.3928,-0.86795 4.3418,-3.50195l4.1543,-11.49805h-2.4043l-2.78711,8.88477h-0.04883l-2.78711,-8.88477zM36.375,27l-0.00781,0.86719c0,1.387 -1.20106,2.375 -2.78906,2.375c-1.249,0 -2.04297,-0.58823 -2.04297,-1.49023c0,-0.931 0.76552,-1.47259 2.22852,-1.55859z"></path></g></g></svg>